<svg width="414" height="413" viewBox="0 0 414 413" fill="none" xmlns="http://www.w3.org/2000/svg">
<path d="M263.173 22.9998H164.15C154.387 22.9998 146.473 30.8797 146.473 40.6001V277.323C146.473 287.043 154.387 294.923 164.15 294.923H263.173C272.935 294.923 280.849 287.043 280.849 277.323V40.6001C280.849 30.8797 272.935 22.9998 263.173 22.9998Z" fill="#F9E8C2"/>
<path d="M261.899 30.0635H246.485V31.9097C246.485 33.059 246.258 34.1969 245.816 35.2586C245.374 36.3203 244.726 37.2849 243.91 38.0973C243.094 38.9097 242.125 39.554 241.058 39.9934C239.992 40.4328 238.849 40.6586 237.694 40.658H188.673C187.519 40.6586 186.376 40.4328 185.309 39.9934C184.243 39.554 183.273 38.9097 182.457 38.0973C181.641 37.2849 180.993 36.3203 180.551 35.2586C180.109 34.1969 179.882 33.059 179.882 31.9097V30.0635H165.452C162.621 30.0635 159.907 31.183 157.905 33.1758C155.904 35.1686 154.78 37.8714 154.78 40.6896V277.214C154.78 280.032 155.904 282.735 157.905 284.728C159.907 286.72 162.621 287.84 165.452 287.84H261.899C264.73 287.84 267.444 286.72 269.446 284.728C271.447 282.735 272.571 280.032 272.571 277.214V40.7077C272.574 39.3107 272.3 37.927 271.764 36.6357C271.229 35.3444 270.443 34.1708 269.452 33.1822C268.461 32.1935 267.284 31.4092 265.988 30.8741C264.692 30.3389 263.302 30.0635 261.899 30.0635Z" fill="white" fill-opacity="0.78"/>
<path d="M217.714 31.1196H202.459C201.49 31.1196 200.704 31.9018 200.704 32.8666V33.1645C200.704 34.1293 201.49 34.9114 202.459 34.9114H217.714C218.683 34.9114 219.469 34.1293 219.469 33.1645V32.8666C219.469 31.9018 218.683 31.1196 217.714 31.1196Z" fill="#FCFCFC"/>
<path d="M224.47 35.1646C225.664 35.1646 226.632 34.2006 226.632 33.0114C226.632 31.8222 225.664 30.8582 224.47 30.8582C223.275 30.8582 222.307 31.8222 222.307 33.0114C222.307 34.2006 223.275 35.1646 224.47 35.1646Z" fill="#FCFCFC"/>
<path d="M253.406 69.0033C321.374 107.113 368.392 176.998 344.378 283.219C318.229 329.854 267.089 337.7 218.989 339.964C193.213 341.177 168.311 340.787 148.594 343.905C80.6261 305.795 17.462 201.315 57.6222 129.689C131.984 144.545 185.438 30.8937 253.406 69.0033Z" fill="#FEEDC7" fill-opacity="0.19"/>
<g filter="url(#filter0_d)">
<path d="M65.2672 299.597H161.733C168.51 299.597 174 294.107 174 287.33V141.267C174 134.49 168.51 129 161.733 129H65.2672C58.4938 129 53 134.49 53 141.267V287.334C53 294.107 58.4938 299.597 65.2672 299.597Z" fill="white"/>
<path d="M80.8409 147.418H101.144V173.291H80.8409V147.418Z" fill="#F9E8C2"/>
</g>
<path d="M172.187 301.768H112.268C111.015 301.768 110 300.753 110 299.5V292.895C110 291.642 111.015 290.627 112.268 290.627H172.187C173.44 290.627 174.455 291.642 174.455 292.895V299.5C174.455 300.753 173.44 301.768 172.187 301.768Z" fill="#F9D613"/>
<path d="M142.426 292.617C160.115 292.617 174.455 291.993 174.455 291.224C174.455 290.455 160.115 289.832 142.426 289.832C124.737 289.832 110.398 290.455 110.398 291.224C110.398 291.993 124.737 292.617 142.426 292.617Z" fill="#F4BE14"/>
<path d="M298.884 299.848H238.965C237.712 299.848 236.697 298.834 236.697 297.58V290.976C236.697 289.722 237.712 288.708 238.965 288.708H298.884C300.137 288.708 301.152 289.722 301.152 290.976V297.58C301.152 298.834 300.137 299.848 298.884 299.848Z" fill="#F9D613"/>
<path d="M269.124 290.697C286.812 290.697 301.152 290.074 301.152 289.305C301.152 288.536 286.812 287.912 269.124 287.912C251.435 287.912 237.095 288.536 237.095 289.305C237.095 290.074 251.435 290.697 269.124 290.697Z" fill="#F4BE14"/>
<path d="M179.866 290.249H119.947C118.693 290.249 117.679 289.235 117.679 287.982V281.377C117.679 280.124 118.693 279.109 119.947 279.109H179.866C181.119 279.109 182.133 280.124 182.133 281.377V287.982C182.133 289.235 181.119 290.249 179.866 290.249Z" fill="#F9D613"/>
<path d="M150.105 281.099C167.794 281.099 182.133 280.475 182.133 279.706C182.133 278.937 167.794 278.313 150.105 278.313C132.416 278.313 118.076 278.937 118.076 279.706C118.076 280.475 132.416 281.099 150.105 281.099Z" fill="#F4BE14"/>
<path d="M310.402 290.249H250.483C249.23 290.249 248.215 289.235 248.215 287.982V281.377C248.215 280.124 249.23 279.109 250.483 279.109H310.402C311.655 279.109 312.67 280.124 312.67 281.377V287.982C312.67 289.235 311.655 290.249 310.402 290.249Z" fill="#F9D613"/>
<path d="M280.641 281.099C298.33 281.099 312.67 280.475 312.67 279.706C312.67 278.937 298.33 278.313 280.641 278.313C262.953 278.313 248.613 278.937 248.613 279.706C248.613 280.475 262.953 281.099 280.641 281.099Z" fill="#F4BE14"/>
<g filter="url(#filter1_d)">
<rect x="168.01" y="86.9998" width="116" height="66" rx="4" fill="white"/>
</g>
<rect x="169.01" y="161" width="87" height="30" rx="2" fill="white" fill-opacity="0.62"/>
<rect x="169.01" y="46.9998" width="87" height="32" rx="2" fill="white" fill-opacity="0.62"/>
<rect x="169.01" y="204" width="87" height="30" rx="2" fill="white" fill-opacity="0.62"/>
<rect x="169.01" y="246" width="87" height="30" rx="2" fill="white" fill-opacity="0.62"/>
<path d="M307.583 166.782L314.953 180.141L316.451 184.637L308.584 193.131L300.09 199.126L297.344 201.122L294.598 190.76C295.309 191.519 297.235 193.548 298.221 194.255C298.264 194.288 298.349 194.345 298.473 194.378C299.374 194.639 300.531 193.174 301.095 192.382L304.216 189.261L308.588 182.892L302.594 174.024L300.222 169.528L307.583 166.782Z" fill="#D39E6D"/>
<path d="M303.087 210.365C303.457 212.296 303.433 213.951 303.338 215.113C301.517 225.636 300.289 233.49 299.966 236.217C299.905 236.719 299.796 237.753 299.966 239.091C300.213 240.997 300.905 242.486 301.465 243.463L302.091 250.458L301.09 268.442L299.089 279.544H292.843H292.094C291.947 260.508 291.985 253.024 292.094 250.947C292.103 250.762 292.137 250.146 292.094 249.325C291.937 246.394 290.956 244.255 290.719 243.705C288.954 239.612 287.119 228.107 286.597 220.728C285.677 207.724 286.232 206.069 286.972 205.243C290.149 201.701 297.315 201.089 300.46 204.12C302.214 205.803 302.76 208.649 303.087 210.365Z" fill="#FCFCFD"/>
<path d="M289.101 203.745C293.332 208.578 292.336 216.483 289.476 218.603C288.703 219.177 286.963 219.946 285.853 221.975C285.331 222.933 285.17 223.768 285.103 224.1C284.591 226.628 282.889 231.318 279.484 240.708C278.957 242.164 278.113 244.422 276.984 247.201L275.111 261.186L271.995 279.545H265C266.1 260.831 266.432 252.963 266.375 250.824C266.371 250.72 266.361 250.392 266.375 249.951C266.442 247.727 266.987 246.338 267.874 243.582C268.675 241.092 269.079 239.817 269.249 238.588C269.477 236.9 269.401 235.619 269.373 235.093C269.159 230.886 269.828 227.723 270.373 216.237C270.881 205.5 270.459 204.864 271.621 203.499C274.988 199.558 284.245 198.196 289.101 203.745Z" fill="#FCFCFD"/>
<path d="M274.243 167.783C273.774 171.155 274.177 172.568 274.12 175.527C274.049 178.928 273.427 181.493 272.872 183.77C271.886 187.82 271.303 187.763 270.373 191.638C269.799 194.033 269.818 194.896 269.126 200.131C268.851 202.194 268.443 205.106 267.879 208.625L265.005 214.245L265.631 218.992L268.751 219.367L270.25 217.37L269.624 216.744L270.25 214.122H270.748L271.246 209.877L271.369 208.004L275.106 199.61C275.813 197.627 276.96 194.673 278.658 191.211C281.011 186.416 281.679 186.25 282.737 183.779C285.516 177.258 285.255 168.105 280.74 164.548C279.578 163.633 277.439 162.538 275.993 163.301C275.519 163.534 274.741 164.183 274.243 167.783Z" fill="#E1AF85"/>
<path d="M293.849 158.663L288.855 149.794L278.616 152.668C278.839 152.848 279.218 153.114 279.74 153.294C280.821 153.664 281.57 153.337 282.111 153.417C282.879 153.536 283.847 154.57 284.61 158.786" fill="#D39E6D"/>
<path d="M285.355 157.415C283.33 157.629 280.864 157.894 278.36 159.54C278.36 159.54 275.998 160.854 274.665 163.329C274.371 163.879 274.381 164.202 274.49 164.411C274.632 164.676 274.959 164.643 275.362 164.908C275.362 164.908 275.884 165.212 276.61 165.781C279.484 168.024 280.954 169.177 281.732 170.775C282.803 172.99 282.177 175.314 281.106 179.269C280.408 181.844 280.001 181.934 279.356 184.391C278.388 188.08 279.327 188.834 278.483 191.884C277.449 195.602 276.093 196.954 273.612 202.995C271.701 207.653 271.53 208.241 271.862 208.739C273.067 210.527 277.568 208.042 285.725 207.117C295.011 206.064 300.128 208.042 301.209 205.741C301.849 204.376 300.161 203.427 297.837 196.375C296.983 193.786 296.685 192.325 296.713 190.632C296.751 188.066 297.519 186.032 297.837 185.263C298.496 183.67 298.71 183.95 299.459 182.266C300.526 179.862 300.151 179.145 301.332 176.02C301.873 174.583 302.162 173.848 302.831 173.023C303.827 171.799 304.448 171.852 305.577 170.652C306.151 170.045 307.664 168.475 307.573 166.782C307.536 166.051 307.208 164.828 304.202 162.661C300.668 160.119 297.187 158.971 295.086 158.416C292.786 157.804 289.547 156.974 285.355 157.415Z" fill="#FFEFBE"/>
<path d="M285.355 152.545C284.506 153.01 282.476 153.958 280.233 153.418C279.541 153.252 278.398 152.977 278.108 152.17C277.852 151.459 278.327 150.52 277.857 150.174C277.672 150.036 277.501 150.117 277.359 149.922C277.15 149.643 277.212 149.112 277.482 148.922C277.691 148.775 277.961 148.874 277.98 148.799C278.009 148.699 277.52 148.623 277.354 148.301C277.169 147.931 277.572 147.58 277.606 147.053C277.625 146.712 277.492 146.209 276.733 145.555C276.648 145.346 276.567 145.137 276.482 144.929C277.44 144.222 278.398 143.515 279.356 142.804L279.73 140.807L280.603 138.683L285.35 136.435L294.593 141.557L290.723 150.548C288.936 151.212 287.143 151.881 285.355 152.545Z" fill="#E1AF85"/>
<path d="M303.836 136.937C303.5 136.468 302.902 135.704 301.92 135.021C301.18 134.505 299.895 133.66 298.34 133.689C295.992 133.731 295.115 135.757 292.971 135.311C292.421 135.197 292.084 134.998 291.724 134.813C288.841 133.324 286.692 132.636 284.729 133.191C283.387 133.57 282.481 134.514 281.357 135.69C280.276 136.819 279.735 137.383 279.607 138.061C279.099 140.769 286.299 141.732 287.598 146.427C288.063 148.101 287.219 148.144 287.323 151.971C287.404 154.926 287.47 157.382 288.746 159.085C290.79 161.817 294.351 159.768 299.653 161.456C305.202 163.225 304.922 166.507 310.087 169.044C317.912 172.886 328.412 170.192 329.057 167.147C329.379 165.63 327.032 165.051 322.417 159.559C318.548 154.954 319.126 154.091 316.252 151.497C311.808 147.489 309.84 149.031 307.829 145.801C306.236 143.24 306.17 140.181 303.836 136.937Z" fill="black"/>
<rect x="219" y="99.9998" width="53" height="6" fill="#EAE0BF"/>
<rect x="219" y="111" width="53" height="6" fill="#EAE0BF"/>
<rect x="219" y="122" width="53" height="6" fill="#EAE0BF"/>
<rect x="219" y="133" width="53" height="6" fill="#EAE0BF"/>
<rect x="176" y="99.9998" width="37" height="40" fill="#EAE0BF"/>
<defs>
<filter id="filter0_d" x="49" y="129" width="129" height="178.598" filterUnits="userSpaceOnUse" color-interpolation-filters="sRGB">
<feFlood flood-opacity="0" result="BackgroundImageFix"/>
<feColorMatrix in="SourceAlpha" type="matrix" values="0 0 0 0 0 0 0 0 0 0 0 0 0 0 0 0 0 0 127 0"/>
<feOffset dy="4"/>
<feGaussianBlur stdDeviation="2"/>
<feColorMatrix type="matrix" values="0 0 0 0 0 0 0 0 0 0 0 0 0 0 0 0 0 0 0.01 0"/>
<feBlend mode="normal" in2="BackgroundImageFix" result="effect1_dropShadow"/>
<feBlend mode="normal" in="SourceGraphic" in2="effect1_dropShadow" result="shape"/>
</filter>
<filter id="filter1_d" x="138.01" y="60.9998" width="176" height="126" filterUnits="userSpaceOnUse" color-interpolation-filters="sRGB">
<feFlood flood-opacity="0" result="BackgroundImageFix"/>
<feColorMatrix in="SourceAlpha" type="matrix" values="0 0 0 0 0 0 0 0 0 0 0 0 0 0 0 0 0 0 127 0"/>
<feOffset dy="4"/>
<feGaussianBlur stdDeviation="15"/>
<feColorMatrix type="matrix" values="0 0 0 0 0.98 0 0 0 0 1 0 0 0 0 0 0 0 0 0.1 0"/>
<feBlend mode="normal" in2="BackgroundImageFix" result="effect1_dropShadow"/>
<feBlend mode="normal" in="SourceGraphic" in2="effect1_dropShadow" result="shape"/>
</filter>
</defs>
</svg>
